<svg width="124" height="107" viewBox="0 0 124 107" fill="none" xmlns="http://www.w3.org/2000/svg">
<g clip-path="url(#clip0)">
<path d="M39.6051 14.7747C38.6084 9.42596 40.1777 3.34085 44.5395 0.103249C44.2923 6.01531 46.1387 11.8245 49.7522 16.503C51.1523 18.3022 52.8964 20.1572 52.8422 22.4386C52.8085 23.8582 52.0428 25.1806 51.0337 26.1769C50.0246 27.1733 48.7816 27.8916 47.5534 28.5987L47.3622 28.8969C43.762 24.8253 40.6019 20.1235 39.6051 14.7747Z" fill="#F0F0F0"/>
<path d="M44.619 0.185016C42.7864 4.29706 42.2927 8.8835 43.208 13.2929C43.3883 14.2456 43.7172 15.1639 44.1826 16.014C44.6627 16.8274 45.3513 17.497 46.1768 17.9533C46.938 18.3943 47.7675 18.757 48.4085 19.3758C48.732 19.6975 48.9839 20.084 49.1479 20.5101C49.3119 20.9363 49.3842 21.3923 49.36 21.8484C49.3293 22.9865 48.8926 24.0456 48.4296 25.0664C47.9156 26.1998 47.3638 27.3689 47.3971 28.6432C47.4012 28.7976 47.162 28.7949 47.158 28.6407C47.1 26.4237 48.6986 24.6431 49.0548 22.5158C49.2211 21.5231 49.0899 20.4742 48.3939 19.7047C47.7852 19.0319 46.9301 18.6571 46.1555 18.2173C45.3437 17.784 44.65 17.158 44.1352 16.3939C43.628 15.5703 43.2644 14.6663 43.0598 13.7204C42.5654 11.5983 42.4068 9.41143 42.5899 7.23993C42.7851 4.76046 43.4019 2.33274 44.4137 0.0618095C44.4764 -0.0787205 44.6812 0.0454015 44.6189 0.185013L44.619 0.185016Z" fill="white"/>
<path d="M42.83 11.8905C42.0713 11.944 41.3183 11.7254 40.7055 11.2737C40.0927 10.822 39.66 10.1666 39.4847 9.42454C39.4497 9.27427 39.681 9.21275 39.716 9.36321C39.878 10.0545 40.2811 10.665 40.8526 11.0844C41.424 11.5039 42.1263 11.7047 42.8325 11.6507C42.9859 11.6391 42.9826 11.879 42.83 11.8905Z" fill="white"/>
<path d="M45.7615 17.7807C46.7915 16.6129 47.3446 15.0988 47.3106 13.5404C47.3071 13.3859 47.5463 13.3886 47.5498 13.5429C47.5821 15.1647 47.0033 16.7392 45.9289 17.952C45.8264 18.0676 45.6596 17.8956 45.7615 17.7807Z" fill="white"/>
<path d="M43.0653 4.90939C43.3632 4.95 43.6664 4.91581 43.9479 4.80987C44.2293 4.70393 44.4801 4.52957 44.6777 4.30244C44.7787 4.18566 44.9454 4.35777 44.845 4.47379C44.6255 4.72371 44.3483 4.91593 44.0377 5.03367C43.727 5.15141 43.3923 5.19107 43.0628 5.1492C43.0314 5.14786 43.0017 5.13459 42.9797 5.11208C42.9577 5.08958 42.9451 5.05953 42.9445 5.02804C42.9449 4.99629 42.9579 4.96601 42.9805 4.9438C43.0032 4.92158 43.0336 4.90922 43.0653 4.90939Z" fill="white"/>
<path d="M62.3768 4.52747C62.3158 4.60219 62.2548 4.67691 62.1943 4.75358C61.3796 5.76232 60.648 6.83576 60.0066 7.9633C59.9557 8.04969 59.9053 8.138 59.8569 8.22568C58.3407 10.9587 57.3437 13.9502 56.9167 17.0481C56.7479 18.281 56.6729 19.525 56.6923 20.7693C56.7193 22.4877 56.8849 24.3488 56.3595 25.9292C56.3065 26.0947 56.2434 26.2568 56.1704 26.4145L47.7399 29.1076C47.7177 29.104 47.6959 29.1025 47.6736 29.099L47.3419 29.2219C47.3365 29.1578 47.3322 29.0912 47.3267 29.0271C47.3234 28.99 47.3219 28.9522 47.3186 28.915C47.317 28.89 47.3154 28.865 47.3125 28.8426C47.3119 28.8343 47.3115 28.8259 47.3115 28.8196C47.3086 28.7971 47.3083 28.776 47.306 28.7555C47.281 28.3832 47.2578 28.0104 47.2385 27.6363C47.2379 27.6344 47.2379 27.6344 47.2392 27.6318C47.0945 24.7827 47.1857 21.8964 47.711 19.1157C47.7269 19.0321 47.742 18.9465 47.7617 18.8616C48.0054 17.6096 48.3508 16.3795 48.7943 15.1839C49.0393 14.53 49.3172 13.8889 49.6268 13.2632C50.43 11.6478 51.4816 10.1693 52.7431 8.8816C55.2581 6.31503 58.5639 4.58351 62.1061 4.52898C62.1967 4.52765 62.2855 4.52687 62.3768 4.52747Z" fill="#F0F0F0"/>
<path d="M62.3919 4.64081C58.4595 6.81784 55.3111 10.1818 53.3942 14.255C52.966 15.1245 52.6771 16.0563 52.5383 17.016C52.4332 17.9552 52.5809 18.9055 52.966 19.7682C53.3089 20.5798 53.7535 21.3701 53.8937 22.2512C53.9588 22.7032 53.9278 23.164 53.8029 23.6032C53.6779 24.0424 53.4618 24.4502 53.1686 24.7998C52.4607 25.6899 51.476 26.2719 50.4934 26.8075C49.4023 27.4022 48.2597 28.0026 47.5211 29.0401C47.4316 29.1659 47.2423 29.0193 47.3316 28.8938C48.6167 27.0885 50.9623 26.6319 52.5242 25.1484C53.253 24.4561 53.7782 23.5395 53.6845 22.5049C53.6025 21.6003 53.1448 20.7849 52.7904 19.9661C52.4025 19.1301 52.2246 18.2115 52.2723 17.2907C52.3619 16.327 52.6145 15.3856 53.0191 14.5069C53.8986 12.514 55.0852 10.6722 56.5353 9.04891C58.1801 7.18705 60.1305 5.621 62.302 4.41854C62.4364 4.34417 62.5255 4.56693 62.3919 4.64081Z" fill="white"/>
<path d="M53.9344 12.907C53.2965 12.4918 52.8265 11.8627 52.6085 11.1321C52.3905 10.4016 52.4386 9.61707 52.7442 8.91876C52.8065 8.77768 53.0281 8.86814 52.9657 9.00941C52.6799 9.65915 52.6352 10.3899 52.8396 11.0698C53.044 11.7497 53.4841 12.3339 54.0804 12.7171C54.2099 12.8005 54.0632 12.99 53.9344 12.907Z" fill="white"/>
<path d="M52.738 19.3796C54.2616 19.069 55.6125 18.194 56.5212 16.9291C56.6111 16.8037 56.8005 16.9502 56.7107 17.0755C55.7626 18.39 54.355 19.2977 52.7688 19.6175C52.6176 19.6479 52.5876 19.4099 52.738 19.3797V19.3796Z" fill="white"/>
<path d="M58.3145 7.4751C58.5279 7.68734 58.7906 7.8431 59.0789 7.9284C59.3672 8.0137 59.6722 8.02586 59.9663 7.9638C60.1171 7.93151 60.1468 8.16956 59.9971 8.20162C59.6717 8.26867 59.335 8.25483 59.0162 8.16129C58.6975 8.06776 58.4064 7.89738 58.1685 7.66505C58.1442 7.64504 58.1285 7.61651 58.1244 7.58527C58.1204 7.55404 58.1284 7.52243 58.1468 7.49688C58.1662 7.47182 58.1947 7.45548 58.2262 7.4514C58.2576 7.44732 58.2893 7.45583 58.3145 7.47509V7.4751Z" fill="white"/>
<path d="M87.7288 40.5468C87.751 40.6449 87.7655 40.7445 87.7721 40.8449L95.5586 45.3486L97.4512 44.2562L99.4688 46.9045L96.3058 49.1649C96.0503 49.3475 95.7425 49.442 95.4288 49.4344C95.1151 49.4267 94.8124 49.3172 94.566 49.1224L86.5369 42.7715C86.1745 42.906 85.7799 42.9267 85.4055 42.8308C85.0312 42.7349 84.6948 42.5271 84.4411 42.2349C84.1874 41.9426 84.0285 41.5799 83.9855 41.1949C83.9424 40.8099 84.0173 40.4209 84.2002 40.0797C84.383 39.7384 84.6651 39.461 85.0091 39.2844C85.353 39.1079 85.7424 39.0404 86.1254 39.0912C86.5085 39.1419 86.867 39.3083 87.1535 39.5683C87.4399 39.8284 87.6405 40.1696 87.7288 40.5468Z" fill="#FFB6B6"/>
<path d="M95.6667 44.8514C95.6914 44.7365 95.7405 44.6283 95.8107 44.5342C95.8809 44.4401 95.9706 44.3623 96.0735 44.3061L99.6684 42.3422C100.147 41.98 100.75 41.8228 101.344 41.9053C101.938 41.9877 102.475 42.3031 102.838 42.7821C103.2 43.2611 103.358 43.8648 103.278 44.4607C103.197 45.0566 102.884 45.596 102.407 45.9608L99.5259 48.8954C99.4436 48.9792 99.3444 49.0441 99.2348 49.086C99.1253 49.1278 99.008 49.1454 98.8911 49.1377C98.7741 49.13 98.6602 49.0971 98.5571 49.0413C98.4539 48.9854 98.364 48.9079 98.2934 48.8141L95.8128 45.5165C95.7421 45.4227 95.6925 45.3147 95.6673 45.1999C95.6421 45.0851 95.6419 44.9662 95.6667 44.8514Z" fill="#3F3D56"/>
<path d="M101.927 33.5939C102.444 31.9412 103.62 30.4254 105.247 29.8667C106.873 29.308 109.255 30.1591 110.478 31.3811C112.715 33.6164 112.784 36.3528 111.247 38.7794C110.942 38.7632 109.887 38.7512 109.577 38.7396L109.14 37.277V38.7252C106.725 38.6504 104.21 38.6972 101.695 38.7457C101.469 37.0276 101.409 35.2466 101.927 33.5939Z" fill="#2F2E41"/>
<path d="M101.397 102.807H99.1944L98.1465 94.2881L101.397 94.2883L101.397 102.807Z" fill="#FFB6B6"/>
<path d="M114.972 102.807H112.77L111.722 94.2881L114.973 94.2883L114.972 102.807Z" fill="#FFB6B6"/>
<path d="M108.541 50.4876L109.04 51.7887L108.94 53.0899L99.172 56.482L99.6567 50.788L100.755 49.487L108.541 50.4876Z" fill="#FFB6B6"/>
<path d="M105.452 38.7795C107.379 38.7795 108.941 37.2135 108.941 35.2817C108.941 33.3499 107.379 31.7838 105.452 31.7838C103.525 31.7838 101.964 33.3499 101.964 35.2817C101.964 37.2135 103.525 38.7795 105.452 38.7795Z" fill="#FFB7B7"/>
<path d="M110.728 56.4577V58.6808C110.728 58.6808 113.323 62.0622 111.926 64.6644L115.93 99.2937H111.737L104.739 70.0688L101.755 98.6933H98.1619L97.7334 75.9277C97.6208 69.9395 98.6179 63.9825 100.674 58.3593V58.3593L110.728 56.4577Z" fill="#2F2E41"/>
<path d="M103.055 30.7269C103.725 30.3171 104.493 30.0955 105.278 30.0851C106.063 30.0747 106.837 30.276 107.518 30.6679C108.198 31.0598 108.762 31.6278 109.149 32.3127C109.536 32.9976 109.732 33.7742 109.717 34.5612C107.767 34.6511 105.719 34.6745 103.641 34.6785L103.15 33.4739L102.861 34.6794C102.228 34.6794 101.594 34.6785 100.959 34.6769C100.933 33.8921 101.113 33.1143 101.481 32.4211C101.848 31.7279 102.391 31.1437 103.055 30.7269Z" fill="#2F2E41"/>
<path d="M102.382 107H100.819L100.54 105.52L99.8258 107H95.6804C95.4817 107 95.2882 106.936 95.1281 106.818C94.9681 106.7 94.8498 106.534 94.7907 106.344C94.7316 106.154 94.7346 105.949 94.7994 105.761C94.8642 105.573 94.9874 105.41 95.1509 105.297L98.4613 103.005V101.509L101.943 101.717L102.382 107Z" fill="#2F2E41"/>
<path d="M116.157 107H114.594L114.315 105.52L113.601 107H109.455C109.257 107 109.063 106.936 108.903 106.818C108.743 106.7 108.625 106.534 108.566 106.344C108.507 106.154 108.51 105.949 108.575 105.761C108.639 105.573 108.762 105.41 108.926 105.297L112.236 103.005V101.509L115.718 101.717L116.157 107Z" fill="#2F2E41"/>
<path d="M112.315 63.5874C112.509 60.9158 112.309 58.23 111.722 55.6168C110.981 52.3187 110.039 48.1221 110.021 48.0137C110.021 48.0115 110.021 48.0094 110.021 48.0072L109.734 41.8601C109.733 41.8423 109.725 41.8254 109.713 41.8128C109.7 41.8003 109.683 41.793 109.665 41.7924L107.68 41.7255C107.662 41.7249 107.644 41.7171 107.632 41.7039C107.619 41.6906 107.612 41.6729 107.612 41.6545C107.612 41.5062 107.583 41.3594 107.526 41.2224C107.469 41.0854 107.386 40.961 107.282 40.8561C107.177 40.7513 107.053 40.6681 106.917 40.6114C106.78 40.5547 106.633 40.5255 106.486 40.5255H102.521C102.264 40.5256 102.016 40.6196 101.824 40.79C101.631 40.9604 101.507 41.1954 101.475 41.4508C101.474 41.4684 101.465 41.4847 101.452 41.4964C101.439 41.5081 101.422 41.5144 101.404 41.514L99.8613 41.462C99.8458 41.4615 99.8306 41.466 99.818 41.475C99.8053 41.484 99.796 41.4968 99.7913 41.5117L99.684 41.8535C98.1266 46.882 97.6942 52.1929 98.4175 57.408C98.6043 58.7958 98.5196 60.8826 98.449 62.0451C98.442 62.1588 98.4574 62.2727 98.4945 62.3803C98.5315 62.488 98.5894 62.5872 98.6648 62.6723C98.7402 62.7575 98.8317 62.8269 98.9339 62.8765C99.0361 62.9261 99.1471 62.955 99.2605 62.9614C102.129 63.1269 110.249 67.0663 112.193 65.1855C112.198 65.181 112.25 64.4872 112.315 63.5874Z" fill="#3F3D56"/>
<path d="M96.4096 40.5468C96.4319 40.6449 96.4464 40.7445 96.453 40.8449L104.239 45.3486L106.132 44.2562L108.15 46.9045L104.987 49.1649C104.731 49.3475 104.423 49.442 104.11 49.4344C103.796 49.4267 103.493 49.3172 103.247 49.1224L95.2177 42.7715C94.8553 42.906 94.4607 42.9267 94.0864 42.8308C93.712 42.7349 93.3756 42.5271 93.1219 42.2349C92.8683 41.9426 92.7094 41.5799 92.6663 41.1949C92.6233 40.8099 92.6982 40.4209 92.881 40.0797C93.0639 39.7384 93.346 39.461 93.6899 39.2844C94.0338 39.1079 94.4232 39.0404 94.8062 39.0912C95.1893 39.1419 95.5479 39.3083 95.8343 39.5683C96.1207 39.8284 96.3214 40.1696 96.4096 40.5468Z" fill="#FFB6B6"/>
<path d="M104.348 44.8514C104.372 44.7365 104.421 44.6283 104.492 44.5342C104.562 44.4401 104.651 44.3623 104.754 44.3061L108.349 42.3422C108.828 41.9801 109.43 41.8231 110.024 41.9056C110.618 41.9881 111.156 42.3034 111.518 42.7824C111.881 43.2614 112.039 43.8649 111.958 44.4607C111.878 45.0565 111.565 45.596 111.088 45.9608L108.207 48.8954C108.124 48.9792 108.025 49.0441 107.916 49.086C107.806 49.1278 107.689 49.1454 107.572 49.1377C107.455 49.13 107.341 49.0971 107.238 49.0413C107.135 48.9854 107.045 48.908 106.974 48.8141L104.494 45.5165C104.423 45.4227 104.373 45.3147 104.348 45.1999C104.323 45.0851 104.323 44.9663 104.348 44.8514Z" fill="#3F3D56"/>
<path d="M9.08429 94.8651C14.1014 94.8651 18.1686 90.7872 18.1686 85.757C18.1686 80.7267 14.1014 76.6489 9.08429 76.6489C4.06718 76.6489 0 80.7267 0 85.757C0 90.7872 4.06718 94.8651 9.08429 94.8651Z" fill="#F0F0F0"/>
<path d="M89.3596 54.1507L23.5272 84.4549C22.5901 84.885 21.5212 84.9249 20.5548 84.5657C19.5885 84.2066 18.8037 83.4778 18.3727 82.5392L2.12683 47.0617C1.6979 46.1222 1.65817 45.0504 2.01638 44.0816C2.37459 43.1127 3.10147 42.3259 4.03756 41.8937L69.87 11.5895C70.8071 11.1594 71.876 11.1196 72.8424 11.4787C73.8087 11.8379 74.5935 12.5667 75.0245 13.5052L91.2704 48.9827C91.6993 49.9223 91.7391 50.994 91.3809 51.9629C91.0227 52.9317 90.2958 53.7186 89.3596 54.1507Z" fill="white"/>
<path d="M5.13256 44.2849C4.82846 44.4253 4.59232 44.6809 4.47595 44.9957C4.35958 45.3104 4.37249 45.6586 4.51183 45.9638L20.7577 81.4414C20.8977 81.7463 21.1527 81.983 21.4666 82.0997C21.7805 82.2164 22.1278 82.2034 22.4322 82.0637L88.2647 51.7595C88.5688 51.6191 88.8049 51.3635 88.9213 51.0487C89.0377 50.734 89.0248 50.3858 88.8854 50.0806L72.6396 14.6031C72.4995 14.2982 72.2446 14.0614 71.9307 13.9447C71.6167 13.8281 71.2695 13.841 70.965 13.9807L5.13256 44.2849Z" fill="#E4E4E4"/>
<path d="M89.3596 54.1507L23.5272 84.4549C22.5901 84.885 21.5212 84.9249 20.5548 84.5657C19.5885 84.2066 18.8037 83.4778 18.3727 82.5392L2.12683 47.0617C1.6979 46.1222 1.65817 45.0504 2.01638 44.0816C2.37459 43.1127 3.10147 42.3259 4.03756 41.8937L69.87 11.5895C70.8071 11.1594 71.876 11.1196 72.8424 11.4787C73.8087 11.8379 74.5935 12.5667 75.0245 13.5052L91.2704 48.9827C91.6993 49.9223 91.7391 50.994 91.3809 51.9629C91.0227 52.9317 90.2958 53.7186 89.3596 54.1507ZM4.206 42.2615C3.36714 42.6488 2.71575 43.354 2.39475 44.2222C2.07375 45.0904 2.10936 46.0508 2.49375 46.8928L18.7396 82.3703C19.1259 83.2114 19.8291 83.8645 20.6951 84.1863C21.5611 84.5082 22.519 84.4725 23.3587 84.0871L89.1912 53.7829C90.0301 53.3956 90.6814 52.6905 91.0024 51.8222C91.3234 50.954 91.2878 49.9936 90.9035 49.1516L74.6576 13.6741C74.2713 12.833 73.5681 12.1799 72.7021 11.8581C71.8362 11.5363 70.8782 11.572 70.0385 11.9574L4.206 42.2615Z" fill="#CACACA"/>
<path d="M72.9097 38.0516L20.6098 62.1265C20.1885 62.3196 19.7181 62.3778 19.2627 62.2929C18.8073 62.2081 18.3891 61.9844 18.0652 61.6523L2.76329 45.9191C2.51233 45.661 2.32683 45.3464 2.22237 45.0015C2.11791 44.6566 2.09754 44.2917 2.16299 43.9373C2.22844 43.5829 2.37778 43.2495 2.59847 42.965C2.81916 42.6805 3.10473 42.4533 3.4312 42.3024L70.4567 11.3239C70.7789 11.175 71.1317 11.1048 71.4862 11.1191C71.8407 11.1333 72.1868 11.2315 72.4961 11.4057C72.8054 11.5798 73.0692 11.825 73.2658 12.1211C73.4624 12.4171 73.5862 12.7557 73.6272 13.109L73.6362 13.1088L74.2176 35.9482C74.2292 36.3887 74.1113 36.8229 73.8788 37.1969C73.6463 37.5708 73.3093 37.8681 72.9097 38.0516ZM70.628 11.6904L3.60016 42.6701C3.33239 42.7938 3.09816 42.9801 2.91716 43.2135C2.73615 43.4468 2.61366 43.7203 2.55998 44.011C2.5063 44.3016 2.523 44.6009 2.60867 44.8838C2.69435 45.1666 2.8465 45.4247 3.05233 45.6364L18.3542 61.3697C18.6199 61.642 18.9629 61.8255 19.3364 61.8951C19.7099 61.9647 20.0958 61.917 20.4413 61.7586L72.7413 37.6837C73.069 37.5332 73.3454 37.2894 73.5361 36.9827C73.7268 36.6759 73.8234 36.3198 73.814 35.9585L73.2377 13.3215L73.3184 13.3195L73.2377 13.3215C73.2299 13.016 73.1466 12.7172 72.9953 12.452C72.844 12.1867 72.6294 11.9632 72.3708 11.8016C72.1122 11.6399 71.8176 11.5452 71.5134 11.5258C71.2092 11.5064 70.905 11.5629 70.628 11.6904Z" fill="#CACACA"/>
<path d="M40.113 70.6207L23.8185 78.1215C23.7002 78.176 23.5724 78.2067 23.4424 78.2117C23.3123 78.2167 23.1825 78.196 23.0604 78.1507C22.9384 78.1054 22.8264 78.0364 22.7309 77.9477C22.6355 77.859 22.5584 77.7523 22.5041 77.6337C22.4498 77.5151 22.4193 77.3869 22.4144 77.2565C22.4095 77.1261 22.4304 76.996 22.4757 76.8736C22.521 76.7513 22.5899 76.6391 22.6784 76.5435C22.767 76.4478 22.8735 76.3706 22.9919 76.3163L39.2864 68.8156C39.5251 68.706 39.7974 68.6959 40.0435 68.7875C40.2897 68.8791 40.4895 69.0649 40.599 69.3042C40.7086 69.5434 40.7189 69.8164 40.6278 70.0633C40.5366 70.3102 40.3515 70.5107 40.113 70.6207Z" fill="white"/>
<path d="M52.0336 47.4387C52.3134 48.048 52.4706 48.7066 52.4963 49.3769C52.522 50.0471 52.4157 50.7159 52.1834 51.345C51.9512 51.974 51.5976 52.551 51.1428 53.0429C50.6881 53.5349 50.141 53.9322 49.5331 54.212C48.9251 54.4919 48.268 54.6489 47.5995 54.674C46.931 54.6992 46.264 54.5919 45.6368 54.3585C45.0097 54.1251 44.4345 53.77 43.9443 53.3135C43.4541 52.8571 43.0583 52.3083 42.7798 51.6984" fill="#CACACA"/>
<path d="M88.7726 102.406H16.3332C15.3027 102.405 14.3146 101.994 13.5859 101.263C12.8572 100.533 12.4473 99.5421 12.4461 98.5088V59.4707C12.4473 58.4375 12.8572 57.4469 13.5859 56.7162C14.3147 55.9856 15.3027 55.5746 16.3332 55.5734H88.7726C89.8032 55.5746 90.7913 55.9856 91.52 56.7162C92.2487 57.4469 92.6586 58.4375 92.6598 59.4707V98.5088C92.6586 99.5421 92.2487 100.533 91.52 101.263C90.7913 101.994 89.8032 102.405 88.7726 102.406Z" fill="white"/>
<path d="M16.3332 58.2046C15.9984 58.205 15.6775 58.3385 15.4407 58.5759C15.204 58.8133 15.0708 59.1351 15.0704 59.4707V98.5088C15.0708 98.8445 15.204 99.1663 15.4407 99.4036C15.6775 99.641 15.9984 99.7745 16.3332 99.7749H88.7726C89.1074 99.7745 89.4284 99.641 89.6651 99.4036C89.9019 99.1663 90.035 98.8445 90.0354 98.5088V59.4707C90.035 59.1351 89.9019 58.8133 89.6651 58.5759C89.4284 58.3385 89.1074 58.205 88.7726 58.2046H16.3332Z" fill="#56CCF2"/>
<path d="M88.7726 102.406H16.3332C15.3027 102.405 14.3146 101.994 13.5859 101.263C12.8572 100.533 12.4473 99.5421 12.4461 98.5088V59.4707C12.4473 58.4375 12.8572 57.4469 13.5859 56.7162C14.3147 55.9856 15.3027 55.5746 16.3332 55.5734H88.7726C89.8032 55.5746 90.7913 55.9856 91.52 56.7162C92.2487 57.4469 92.6586 58.4375 92.6598 59.4707V98.5088C92.6586 99.5421 92.2487 100.533 91.52 101.263C90.7913 101.994 89.8032 102.405 88.7726 102.406ZM16.3332 55.9782C15.4097 55.9793 14.5243 56.3476 13.8713 57.0023C13.2182 57.6571 12.8509 58.5448 12.8499 59.4707V98.5088C12.8509 99.4347 13.2182 100.322 13.8713 100.977C14.5243 101.632 15.4097 102 16.3332 102.001H88.7726C89.6962 102 90.5816 101.632 91.2346 100.977C91.8877 100.322 92.255 99.4347 92.256 98.5088V59.4707C92.255 58.5448 91.8877 57.6571 91.2346 57.0023C90.5816 56.3476 89.6962 55.9793 88.7726 55.9782H16.3332Z" fill="#3F3D56"/>
<path d="M80.5227 80.8936H22.974C22.5108 80.893 22.0591 80.749 21.6805 80.4814C21.302 80.2137 21.015 79.8355 20.8588 79.3983L13.5 58.6986C13.3793 58.3591 13.3417 57.9955 13.3903 57.6384C13.4389 57.2813 13.5722 56.9411 13.7792 56.6464C13.9862 56.3517 14.2606 56.1112 14.5796 55.945C14.8986 55.7787 15.2526 55.6917 15.6121 55.6912L89.4163 55.5775C89.7711 55.577 90.1209 55.6608 90.4372 55.822C90.7534 55.9832 91.027 56.2173 91.2357 56.5049C91.4443 56.7926 91.582 57.1258 91.6374 57.4771C91.6929 57.8284 91.6646 58.1879 91.5547 58.5261L91.563 58.5297L82.5867 79.5292C82.4139 79.9344 82.1261 80.2797 81.7592 80.5223C81.3922 80.7649 80.9623 80.894 80.5227 80.8936ZM89.4195 55.9823L15.6127 56.096C15.3178 56.0964 15.0274 56.1678 14.7658 56.3041C14.5042 56.4405 14.2791 56.6378 14.1093 56.8795C13.9396 57.1211 13.8302 57.4002 13.7903 57.693C13.7505 57.9859 13.7814 58.2841 13.8803 58.5626L21.2391 79.2623C21.3672 79.6209 21.6026 79.9312 21.9131 80.1507C22.2236 80.3702 22.5941 80.4883 22.974 80.4888H80.5227C80.8832 80.4891 81.2359 80.3832 81.5368 80.1842C81.8378 79.9853 82.0738 79.702 82.2156 79.3697L91.1124 58.5563L91.1865 58.5882L91.1124 58.5563C91.2324 58.2754 91.281 57.969 91.2539 57.6647C91.2268 57.3603 91.1248 57.0675 90.957 56.8124C90.7893 56.5572 90.561 56.3479 90.2926 56.203C90.0243 56.0581 89.7243 55.9823 89.4195 55.9823Z" fill="#3F3D56"/>
<path d="M37.1634 96.7722H19.2336C18.9709 96.7722 18.719 96.6675 18.5332 96.4813C18.3474 96.295 18.2431 96.0424 18.2431 95.779C18.2431 95.5156 18.3474 95.263 18.5332 95.0767C18.719 94.8905 18.9709 94.7858 19.2336 94.7858H37.1634C37.4262 94.7858 37.6781 94.8905 37.8639 95.0767C38.0496 95.263 38.154 95.5156 38.154 95.779C38.154 96.0424 38.0496 96.295 37.8639 96.4813C37.6781 96.6675 37.4262 96.7722 37.1634 96.7722Z" fill="white"/>
<path d="M57.6442 80.6913C57.6442 82.0451 57.1078 83.3435 56.153 84.3008C55.1982 85.2581 53.9032 85.7959 52.553 85.7959C51.2027 85.7959 49.9077 85.2581 48.9529 84.3008C47.9981 83.3435 47.4617 82.0451 47.4617 80.6913" fill="#3F3D56"/>
<path d="M25.436 22.0002C26.4394 22.0002 27.2529 21.1846 27.2529 20.1786C27.2529 19.1725 26.4394 18.357 25.436 18.357C24.4326 18.357 23.6191 19.1725 23.6191 20.1786C23.6191 21.1846 24.4326 22.0002 25.436 22.0002Z" fill="#F0F0F0"/>
<path d="M1.81686 65.7191C2.82028 65.7191 3.63372 64.9036 3.63372 63.8975C3.63372 62.8914 2.82028 62.0759 1.81686 62.0759C0.813435 62.0759 0 62.8914 0 63.8975C0 64.9036 0.813435 65.7191 1.81686 65.7191Z" fill="#F0F0F0"/>
<path d="M92.6597 31.5131C93.6631 31.5131 94.4766 30.6976 94.4766 29.6915C94.4766 28.6855 93.6631 27.8699 92.6597 27.8699C91.6563 27.8699 90.8429 28.6855 90.8429 29.6915C90.8429 30.6976 91.6563 31.5131 92.6597 31.5131Z" fill="#F0F0F0"/>
<path d="M123.76 107H89.18C89.1162 107 89.0551 106.975 89.01 106.929C88.9649 106.884 88.9396 106.823 88.9396 106.759C88.9396 106.695 88.9649 106.634 89.01 106.589C89.0551 106.543 89.1162 106.518 89.18 106.518H123.76C123.823 106.518 123.884 106.544 123.929 106.589C123.974 106.634 123.999 106.695 123.999 106.759C123.999 106.823 123.974 106.884 123.929 106.929C123.884 106.974 123.823 107 123.76 107Z" fill="#CACACA"/>
</g>
<defs>
<clipPath id="clip0">
<rect width="124" height="107" fill="white"/>
</clipPath>
</defs>
</svg>
