<svg width="360" height="780" viewBox="0 0 360 780" fill="none" xmlns="http://www.w3.org/2000/svg">
<g clip-path="url(#clip0)">
<path d="M0 688.133L21.92 695.933C43.68 703.733 87.52 719.333 131.2 727.133C174.88 734.933 218.72 734.933 262.08 721.933C305.6 708.933 348.8 682.933 392.32 671.32C435.68 659.88 479.52 662.653 523.2 665.253C566.88 667.853 610.72 670.28 654.4 668.72C698.08 667.333 741.92 662.133 785.6 672.533C829.28 682.933 873.12 708.933 916.8 721.933C960.48 734.933 1004.32 734.933 1047.68 733.72C1091.2 732.68 1134.4 730.253 1177.92 724.013C1221.28 717.6 1265.12 707.2 1308.8 700.613C1352.48 693.853 1396.32 691.08 1418.08 689.52L1440 688.133V568.533L1418.08 577.547C1396.32 586.387 1352.48 604.413 1308.8 600.253C1265.12 596.267 1221.28 570.267 1177.92 553.453C1134.4 536.813 1091.2 529.187 1047.68 528.147C1004.32 526.933 960.48 532.133 916.8 541.147C873.12 549.987 829.28 562.813 785.6 552.413C741.92 542.013 698.08 508.387 654.4 508.387C610.72 508.387 566.88 542.013 523.2 556.053C479.52 570.267 435.68 565.067 392.32 578.067C348.8 591.067 305.6 622.267 262.08 613.253C218.72 604.413 174.88 555.187 131.2 529.187C87.52 503.187 43.68 500.413 21.92 498.853L0 497.467V688.133Z" fill="#48B2D4"/>
<path d="M0 500.933L21.92 502.32C43.68 503.88 87.52 506.653 131.2 532.653C174.88 558.653 218.72 607.88 262.08 616.72C305.6 625.733 348.8 594.533 392.32 581.533C435.68 568.533 479.52 573.733 523.2 559.52C566.88 545.48 610.72 511.853 654.4 511.853C698.08 511.853 741.92 545.48 785.6 555.88C829.28 566.28 873.12 553.453 916.8 544.613C960.48 535.6 1004.32 530.4 1047.68 531.613C1091.2 532.653 1134.4 540.28 1177.92 556.92C1221.28 573.733 1265.12 599.733 1308.8 603.72C1352.48 607.88 1396.32 589.853 1418.08 581.013L1440 572V294.667L1418.08 316.853C1396.32 339.213 1352.48 383.587 1308.8 383.587C1265.12 383.587 1221.28 339.213 1177.92 308.013C1134.4 276.813 1091.2 258.787 1047.68 268.147C1004.32 277.333 960.48 313.733 916.8 331.933C873.12 350.133 829.28 350.133 785.6 322.747C741.92 295.187 698.08 240.413 654.4 243.013C610.72 245.613 566.88 305.587 523.2 346.147C479.52 386.533 435.68 407.333 392.32 431.947C348.8 456.387 305.6 484.813 262.08 449.453C218.72 414.267 174.88 315.467 131.2 293.453C87.52 271.613 43.68 326.387 21.92 353.947L0 381.333V500.933Z" fill="#56CCF2"/>
<path d="M0 384.8L21.92 357.413C43.68 329.853 87.52 275.08 131.2 296.92C174.88 318.933 218.72 417.733 262.08 452.92C305.6 488.28 348.8 459.853 392.32 435.413C435.68 410.8 479.52 390 523.2 349.613C566.88 309.053 610.72 249.08 654.4 246.48C698.08 243.88 741.92 298.653 785.6 326.213C829.28 353.6 873.12 353.6 916.8 335.4C960.48 317.2 1004.32 280.8 1047.68 271.613C1091.2 262.253 1134.4 280.28 1177.92 311.48C1221.28 342.68 1265.12 387.053 1308.8 387.053C1352.48 387.053 1396.32 342.68 1418.08 320.32L1440 298.133V53.7333L1418.08 70.5467C1396.32 87.1867 1352.48 120.813 1308.8 129.653C1265.12 138.667 1221.28 123.067 1177.92 115.267C1134.4 107.467 1091.2 107.467 1047.68 117.867C1004.32 128.267 960.48 149.067 916.8 142.653C873.12 136.413 829.28 102.787 785.6 84.5867C741.92 66.3867 698.08 63.6133 654.4 69.8533C610.72 76.2667 566.88 91.8667 523.2 107.467C479.52 123.067 435.68 138.667 392.32 149.067C348.8 159.467 305.6 164.667 262.08 147.853C218.72 131.213 174.88 92.3867 131.2 86.1467C87.52 79.7333 43.68 105.733 21.92 118.733L0 131.733V384.8Z" fill="#79D4F4"/>
<path d="M0 373.602L21.92 342.697C43.68 311.596 87.52 249.785 131.2 274.431C174.88 299.273 218.72 410.767 262.08 450.474C305.6 490.377 348.8 458.298 392.32 430.718C435.68 402.943 479.52 379.47 523.2 333.895C566.88 288.124 610.72 220.445 654.4 217.511C698.08 214.577 741.92 276.387 785.6 307.488C829.28 338.394 873.12 338.394 916.8 317.855C960.48 297.317 1004.32 256.24 1047.68 245.873C1091.2 235.311 1134.4 255.653 1177.92 290.862C1221.28 326.071 1265.12 376.145 1308.8 376.145C1352.48 376.145 1396.32 326.071 1418.08 300.838L1440 275.801V0L1418.08 18.9735C1396.32 37.7514 1352.48 75.6985 1308.8 85.6742C1265.12 95.8456 1221.28 78.2413 1177.92 69.4392C1134.4 60.637 1091.2 60.637 1047.68 72.3732C1004.32 84.1094 960.48 107.582 916.8 100.344C873.12 93.3028 829.28 55.3557 785.6 34.8174C741.92 14.279 698.08 11.1494 654.4 18.1911C610.72 25.4284 566.88 43.0327 523.2 60.637C479.52 78.2413 435.68 95.8456 392.32 107.582C348.8 119.318 305.6 125.186 262.08 106.213C218.72 87.4347 174.88 43.6195 131.2 36.5778C87.52 29.3405 43.68 58.681 21.92 73.3512L0 88.0215V373.602Z" fill="#79D4F4"/>
<path d="M0 781.733H21.92C43.68 781.733 87.52 781.733 131.2 781.733C174.88 781.733 218.72 781.733 262.08 781.733C305.6 781.733 348.8 781.733 392.32 781.733C435.68 781.733 479.52 781.733 523.2 781.733C566.88 781.733 610.72 781.733 654.4 781.733C698.08 781.733 741.92 781.733 785.6 781.733C829.28 781.733 873.12 781.733 916.8 781.733C960.48 781.733 1004.32 781.733 1047.68 781.733C1091.2 781.733 1134.4 781.733 1177.92 781.733C1221.28 781.733 1265.12 781.733 1308.8 781.733C1352.48 781.733 1396.32 781.733 1418.08 781.733H1440V684.667L1418.08 686.053C1396.32 687.613 1352.48 690.387 1308.8 697.147C1265.12 703.733 1221.28 714.133 1177.92 720.547C1134.4 726.787 1091.2 729.213 1047.68 730.253C1004.32 731.467 960.48 731.467 916.8 718.467C873.12 705.467 829.28 679.467 785.6 669.067C741.92 658.667 698.08 663.867 654.4 665.253C610.72 666.813 566.88 664.387 523.2 661.787C479.52 659.187 435.68 656.413 392.32 667.853C348.8 679.467 305.6 705.467 262.08 718.467C218.72 731.467 174.88 731.467 131.2 723.667C87.52 715.867 43.68 700.267 21.92 692.467L0 684.667V781.733Z" fill="#3B98B7"/>
</g>
<defs>
<clipPath id="clip0">
<rect width="360" height="780" fill="white"/>
</clipPath>
</defs>
</svg>
