<svg width="164" height="302" viewBox="0 0 164 302" fill="none" xmlns="http://www.w3.org/2000/svg">
<path d="M123.697 76.294C121.1 78.8799 116.9 78.8799 114.303 76.294C111.707 73.708 111.707 69.5255 114.303 66.9395C116.9 64.3535 121.1 64.3535 123.697 66.9395C126.293 69.5255 126.293 73.708 123.697 76.294ZM151.786 94.9131C149.189 92.3271 144.989 92.3271 142.392 94.9131C139.796 97.499 139.796 101.682 142.392 104.268C144.989 106.854 149.189 106.854 151.786 104.268C154.382 101.682 154.382 97.499 151.786 94.9131ZM179.875 122.887C177.278 120.301 173.078 120.301 170.481 122.887C167.885 125.473 167.885 129.655 170.481 132.241C173.078 134.827 177.278 134.827 179.875 132.241C182.471 129.655 182.471 125.473 179.875 122.887ZM207.964 150.86C205.367 148.274 201.167 148.274 198.57 150.86C195.974 153.446 195.974 157.629 198.57 160.215C201.167 162.801 205.367 162.801 207.964 160.215C210.56 157.629 210.56 153.446 207.964 150.86ZM236.053 178.834C233.456 176.248 229.256 176.248 226.659 178.834C224.063 181.42 224.063 185.603 226.659 188.188C229.256 190.774 233.456 190.774 236.053 188.188C238.649 185.603 238.649 181.42 236.053 178.834ZM95.6077 94.9131C93.011 92.3271 88.8111 92.3271 86.2145 94.9131C83.6178 97.499 83.6178 101.682 86.2145 104.268C88.8111 106.854 93.011 106.854 95.6077 104.268C98.2043 101.682 98.2043 97.499 95.6077 94.9131ZM123.697 122.887C121.1 120.301 116.9 120.301 114.303 122.887C111.707 125.473 111.707 129.655 114.303 132.241C116.9 134.827 121.1 134.827 123.697 132.241C126.293 129.655 126.293 125.473 123.697 122.887ZM151.786 150.86C149.189 148.274 144.989 148.274 142.392 150.86C139.796 153.446 139.796 157.629 142.392 160.215C144.989 162.801 149.189 162.801 151.786 160.215C154.382 157.629 154.382 153.446 151.786 150.86ZM179.875 178.834C177.278 176.248 173.078 176.248 170.481 178.834C167.885 181.42 167.885 185.603 170.481 188.188C173.078 190.774 177.278 190.774 179.875 188.188C182.471 185.603 182.471 181.42 179.875 178.834ZM207.964 206.808C205.367 204.222 201.167 204.222 198.57 206.808C195.974 209.394 195.974 213.576 198.57 216.162C201.167 218.748 205.367 218.748 207.964 216.162C210.56 213.576 210.56 209.394 207.964 206.808ZM67.5187 122.887C64.922 120.301 60.7221 120.301 58.1255 122.887C55.5288 125.473 55.5288 129.655 58.1255 132.241C60.7221 134.827 64.922 134.827 67.5187 132.241C70.1153 129.655 70.1153 125.473 67.5187 122.887ZM95.6077 150.86C93.011 148.274 88.8111 148.274 86.2145 150.86C83.6178 153.446 83.6178 157.629 86.2145 160.215C88.8111 162.801 93.011 162.801 95.6077 160.215C98.2043 157.629 98.2043 153.446 95.6077 150.86ZM123.697 178.834C121.1 176.248 116.9 176.248 114.303 178.834C111.707 181.42 111.707 185.603 114.303 188.188C116.9 190.774 121.1 190.774 123.697 188.188C126.293 185.603 126.293 181.42 123.697 178.834ZM151.786 206.808C149.189 204.222 144.989 204.222 142.392 206.808C139.796 209.394 139.796 213.576 142.392 216.162C144.989 218.748 149.189 218.748 151.786 216.162C154.382 213.576 154.382 209.394 151.786 206.808ZM179.875 234.781C177.278 232.195 173.078 232.195 170.481 234.781C167.885 237.367 167.885 241.55 170.481 244.136C173.078 246.722 177.278 246.722 179.875 244.136C182.471 241.55 182.471 237.345 179.875 234.781ZM39.4297 150.86C36.833 148.274 32.6331 148.274 30.0365 150.86C27.4398 153.446 27.4398 157.629 30.0365 160.215C32.6331 162.801 36.833 162.801 39.4297 160.215C42.0263 157.629 42.0263 153.446 39.4297 150.86ZM67.5187 178.834C64.922 176.248 60.7221 176.248 58.1255 178.834C55.5288 181.42 55.5288 185.603 58.1255 188.188C60.7221 190.774 64.922 190.774 67.5187 188.188C70.1153 185.603 70.1153 181.42 67.5187 178.834ZM95.6077 206.808C93.011 204.222 88.8111 204.222 86.2145 206.808C83.6178 209.394 83.6178 213.576 86.2145 216.162C88.8111 218.748 93.011 218.748 95.6077 216.162C98.2043 213.576 98.2043 209.394 95.6077 206.808ZM123.697 234.781C121.1 232.195 116.9 232.195 114.303 234.781C111.707 237.367 111.707 241.55 114.303 244.136C116.9 246.722 121.1 246.722 123.697 244.136C126.293 241.55 126.293 237.345 123.697 234.781ZM151.786 262.755C149.189 260.169 144.989 260.169 142.392 262.755C139.796 265.341 139.796 269.523 142.392 272.109C144.989 274.695 149.189 274.695 151.786 272.109C154.382 269.523 154.382 265.318 151.786 262.755ZM11.3407 178.834C8.74402 176.248 4.54414 176.248 1.94749 178.834C-0.649163 181.42 -0.649163 185.603 1.94749 188.188C4.54414 190.774 8.74402 190.774 11.3407 188.188C13.9373 185.603 13.9373 181.42 11.3407 178.834ZM39.4297 206.808C36.833 204.222 32.6331 204.222 30.0365 206.808C27.4398 209.394 27.4398 213.576 30.0365 216.162C32.6331 218.748 36.833 218.748 39.4297 216.162C42.0263 213.576 42.0263 209.394 39.4297 206.808ZM67.5187 234.781C64.922 232.195 60.7221 232.195 58.1255 234.781C55.5288 237.367 55.5288 241.55 58.1255 244.136C60.7221 246.722 64.922 246.722 67.5187 244.136C70.1153 241.55 70.1153 237.345 67.5187 234.781ZM95.6077 262.755C93.011 260.169 88.8111 260.169 86.2145 262.755C83.6178 265.341 83.6178 269.523 86.2145 272.109C88.8111 274.695 93.011 274.695 95.6077 272.109C98.2043 269.523 98.2043 265.318 95.6077 262.755ZM123.697 290.706C121.1 288.12 116.9 288.12 114.303 290.706C111.707 293.292 111.707 297.475 114.303 300.061C116.9 302.647 121.1 302.647 123.697 300.061C126.293 297.497 126.293 293.292 123.697 290.706Z" fill="white"/>
</svg>
