<svg width="288" height="59" viewBox="0 0 288 59" fill="none" xmlns="http://www.w3.org/2000/svg">
<path d="M288 50.9199L281.12 46.7599C274.24 42.5999 260.48 34.2799 246.784 37.7039C233.056 41.0959 219.424 56.2639 205.696 58.1199C192 59.9759 178.24 48.5839 164.544 41.0959C150.816 33.6399 137.184 30.1199 123.456 31.2399C109.76 32.3599 96 38.1199 82.304 43.3359C68.576 48.5839 54.944 53.2559 41.216 52.4239C27.52 51.5599 13.76 45.1599 6.88 41.9599L0 38.7599V0.679947H6.88C13.76 0.679947 27.52 0.679947 41.216 0.679947C54.944 0.679947 68.576 0.679947 82.304 0.679947C96 0.679947 109.76 0.679947 123.456 0.679947C137.184 0.679947 150.816 0.679947 164.544 0.679947C178.24 0.679947 192 0.679947 205.696 0.679947C219.424 0.679947 233.056 0.679947 246.784 0.679947C260.48 0.679947 274.24 0.679947 281.12 0.679947H288V50.9199Z" fill="white"/>
</svg>
